#Comment line ignore any data following # character 
#Hierarchical Translation and Rotation (.htr) file 
[Header]	
#Header keywords are followed by a single value 
FileType HTR		#Single word string
DataType HTRS		#Translation followed by rotation and scale data
FileVersion 1		#integer
NumSegments 84		#integer
NumFrames 2		#integer
DataFrameRate 30		#integer, data frame rate in this file
EulerRotationOrder ZYX
CalibrationUnits mm
RotationUnits Degrees
GlobalAxisofGravity Y
BoneLengthAxis Y
ScaleFactor 1.00
[SegmentNames&Hierarchy]
#CHILD	PARENT
MASTER GLOBAL
root MASTER
chest root
L_mid_tent01 root
R_mid_tent01 root
spine01 root
Bip01_Neck chest
L_humerus chest
R_humerus chest
weapon_bone chest
Bip01_Head Bip01_Neck
eye_left_bone Bip01_Head
eye_right_bone Bip01_Head
L_forearm L_humerus
L_front_hand L_forearm
L_weapon_bone L_forearm
L_front_hand01_01 L_front_hand
L_front_hand02_01 L_front_hand
L_front_hand03_01 L_front_hand
L_front_hand01_02 L_front_hand01_01
L_front_hand02_02 L_front_hand02_01
L_front_hand03_02 L_front_hand03_01
R_forearm R_humerus
R_front_hand R_forearm
R_weapon_bone R_forearm
R_front_hand01_01 R_front_hand
R_front_hand02_01 R_front_hand
R_front_hand03_01 R_front_hand
R_front_hand01_02 R_front_hand01_01
R_front_hand02_02 R_front_hand02_01
R_front_hand03_02 R_front_hand03_01
null_rope01_connect L_mid_tent01
Rope1_Seg01 null_rope01_connect
Rope1_Seg02 Rope1_Seg01
Rope1_Seg03 Rope1_Seg02
Rope1_Seg04 Rope1_Seg03
Rope1_Seg05 Rope1_Seg04
Rope1_Seg06 Rope1_Seg05
Rope1_Seg07 Rope1_Seg06
Rope1_Seg09 Rope1_Seg07
L_mid_hand01 Rope1_Seg09
L_mid_hand02 Rope1_Seg09
L_mid_hand03 Rope1_Seg09
null_rope02_connect R_mid_tent01
Rope2_Seg01 null_rope02_connect
Rope2_Seg02 Rope2_Seg01
Rope2_Seg03 Rope2_Seg02
Rope2_Seg04 Rope2_Seg03
Rope2_Seg05 Rope2_Seg04
Rope2_Seg06 Rope2_Seg05
Rope2_Seg07 Rope2_Seg06
Rope2_Seg09 Rope2_Seg07
R_mid_hand01 Rope2_Seg09
R_mid_hand02 Rope2_Seg09
R_mid_hand03 Rope2_Seg09
spine02 spine01
spine03 spine02
pelvis spine03
null_rope03_connect pelvis
null_rope04_connect pelvis
Rope3_Seg01 null_rope03_connect
Rope3_Seg02 Rope3_Seg01
Rope3_Seg03 Rope3_Seg02
Rope3_Seg04 Rope3_Seg03
Rope3_Seg05 Rope3_Seg04
Rope3_Seg06 Rope3_Seg05
Rope3_Seg07 Rope3_Seg06
Rope3_Seg08 Rope3_Seg07
Rope3_Seg09 Rope3_Seg08
R_rear_hand01 Rope3_Seg09
R_rear_hand02 Rope3_Seg09
R_rear_hand03 Rope3_Seg09
Rope4_Seg01 null_rope04_connect
Rope4_Seg02 Rope4_Seg01
Rope4_Seg03 Rope4_Seg02
Rope4_Seg04 Rope4_Seg03
Rope4_Seg05 Rope4_Seg04
Rope4_Seg06 Rope4_Seg05
Rope4_Seg07 Rope4_Seg06
Rope4_Seg08 Rope4_Seg07
Rope4_Seg09 Rope4_Seg08
L_rear_hand01 Rope4_Seg09
L_rear_hand02 Rope4_Seg09
L_rear_hand03 Rope4_Seg09
[BasePosition]
#SegmentName Tx, Ty, Tz, Rx, Ry, Rz, BoneLength
MASTER 0.000000 0.000000 0.000000 -90.000000 0.000000 0.000000 10.000000 
root 0.000000 0.000000 0.000000 0.000000 0.000000 0.000000 10.000000 
chest 0.000000 0.000000 0.000000 0.000000 0.000000 0.000000 10.000000 
L_mid_tent01 0.000000 0.000000 0.000000 0.000000 0.000000 0.000000 10.000000 
R_mid_tent01 0.000000 0.000000 0.000000 0.000000 0.000000 0.000000 10.000000 
spine01 0.000000 0.000000 0.000000 0.000000 0.000000 0.000000 10.000000 
Bip01_Neck 0.000000 0.000000 0.000000 0.000000 0.000000 0.000000 10.000000 
L_humerus 0.000000 0.000000 0.000000 0.000000 0.000000 0.000000 10.000000 
R_humerus 0.000000 0.000000 0.000000 0.000000 0.000000 0.000000 10.000000 
weapon_bone 0.000000 0.000000 0.000000 0.000000 0.000000 0.000000 10.000000 
Bip01_Head 0.000000 0.000000 0.000000 0.000000 0.000000 0.000000 10.000000 
eye_left_bone 0.000000 0.000000 0.000000 0.000000 0.000000 0.000000 10.000000 
eye_right_bone 0.000000 0.000000 0.000000 0.000000 0.000000 0.000000 10.000000 
L_forearm 0.000000 0.000000 0.000000 0.000000 0.000000 0.000000 10.000000 
L_front_hand 0.000000 0.000000 0.000000 0.000000 0.000000 0.000000 10.000000 
L_weapon_bone 0.000000 0.000000 0.000000 0.000000 0.000000 0.000000 10.000000 
L_front_hand01_01 0.000000 0.000000 0.000000 0.000000 0.000000 0.000000 10.000000 
L_front_hand02_01 0.000000 0.000000 0.000000 0.000000 0.000000 0.000000 10.000000 
L_front_hand03_01 0.000000 0.000000 0.000000 0.000000 0.000000 0.000000 10.000000 
L_front_hand01_02 0.000000 0.000000 0.000000 0.000000 0.000000 0.000000 10.000000 
L_front_hand02_02 0.000000 0.000000 0.000000 0.000000 0.000000 0.000000 10.000000 
L_front_hand03_02 0.000000 0.000000 0.000000 0.000000 0.000000 0.000000 10.000000 
R_forearm 0.000000 0.000000 0.000000 0.000000 0.000000 0.000000 10.000000 
R_front_hand 0.000000 0.000000 0.000000 0.000000 0.000000 0.000000 10.000000 
R_weapon_bone 0.000000 0.000000 0.000000 0.000000 0.000000 0.000000 10.000000 
R_front_hand01_01 0.000000 0.000000 0.000000 0.000000 0.000000 0.000000 10.000000 
R_front_hand02_01 0.000000 0.000000 0.000000 0.000000 0.000000 0.000000 10.000000 
R_front_hand03_01 0.000000 0.000000 0.000000 0.000000 0.000000 0.000000 10.000000 
R_front_hand01_02 0.000000 0.000000 0.000000 0.000000 0.000000 0.000000 10.000000 
R_front_hand02_02 0.000000 0.000000 0.000000 0.000000 0.000000 0.000000 10.000000 
R_front_hand03_02 0.000000 0.000000 0.000000 0.000000 0.000000 0.000000 10.000000 
null_rope01_connect 0.000000 0.000000 0.000000 0.000000 0.000000 0.000000 10.000000 
Rope1_Seg01 0.000000 0.000000 0.000000 0.000000 0.000000 0.000000 10.000000 
Rope1_Seg02 0.000000 0.000000 0.000000 0.000000 0.000000 0.000000 10.000000 
Rope1_Seg03 0.000000 0.000000 0.000000 0.000000 0.000000 0.000000 10.000000 
Rope1_Seg04 0.000000 0.000000 0.000000 0.000000 0.000000 0.000000 10.000000 
Rope1_Seg05 0.000000 0.000000 0.000000 0.000000 0.000000 0.000000 10.000000 
Rope1_Seg06 0.000000 0.000000 0.000000 0.000000 0.000000 0.000000 10.000000 
Rope1_Seg07 0.000000 0.000000 0.000000 0.000000 0.000000 0.000000 10.000000 
Rope1_Seg09 0.000000 0.000000 0.000000 0.000000 0.000000 0.000000 10.000000 
L_mid_hand01 0.000000 0.000000 0.000000 0.000000 0.000000 0.000000 10.000000 
L_mid_hand02 0.000000 0.000000 0.000000 0.000000 0.000000 0.000000 10.000000 
L_mid_hand03 0.000000 0.000000 0.000000 0.000000 0.000000 0.000000 10.000000 
null_rope02_connect 0.000000 0.000000 0.000000 0.000000 0.000000 0.000000 10.000000 
Rope2_Seg01 0.000000 0.000000 0.000000 0.000000 0.000000 0.000000 10.000000 
Rope2_Seg02 0.000000 0.000000 0.000000 0.000000 0.000000 0.000000 10.000000 
Rope2_Seg03 0.000000 0.000000 0.000000 0.000000 0.000000 0.000000 10.000000 
Rope2_Seg04 0.000000 0.000000 0.000000 0.000000 0.000000 0.000000 10.000000 
Rope2_Seg05 0.000000 0.000000 0.000000 0.000000 0.000000 0.000000 10.000000 
Rope2_Seg06 0.000000 0.000000 0.000000 0.000000 0.000000 0.000000 10.000000 
Rope2_Seg07 0.000000 0.000000 0.000000 0.000000 0.000000 0.000000 10.000000 
Rope2_Seg09 0.000000 0.000000 0.000000 0.000000 0.000000 0.000000 10.000000 
R_mid_hand01 0.000000 0.000000 0.000000 0.000000 0.000000 0.000000 10.000000 
R_mid_hand02 0.000000 0.000000 0.000000 0.000000 0.000000 0.000000 10.000000 
R_mid_hand03 0.000000 0.000000 0.000000 0.000000 0.000000 0.000000 10.000000 
spine02 0.000000 0.000000 0.000000 0.000000 0.000000 0.000000 10.000000 
spine03 0.000000 0.000000 0.000000 0.000000 0.000000 0.000000 10.000000 
pelvis 0.000000 0.000000 0.000000 0.000000 0.000000 0.000000 10.000000 
null_rope03_connect 0.000000 0.000000 0.000000 0.000000 0.000000 0.000000 10.000000 
null_rope04_connect 0.000000 0.000000 0.000000 0.000000 0.000000 0.000000 10.000000 
Rope3_Seg01 0.000000 0.000000 0.000000 0.000000 0.000000 0.000000 10.000000 
Rope3_Seg02 0.000000 0.000000 0.000000 0.000000 0.000000 0.000000 10.000000 
Rope3_Seg03 0.000000 0.000000 0.000000 0.000000 0.000000 0.000000 10.000000 
Rope3_Seg04 0.000000 0.000000 0.000000 0.000000 0.000000 0.000000 10.000000 
Rope3_Seg05 0.000000 0.000000 0.000000 0.000000 0.000000 0.000000 10.000000 
Rope3_Seg06 0.000000 0.000000 0.000000 0.000000 0.000000 0.000000 10.000000 
Rope3_Seg07 0.000000 0.000000 0.000000 0.000000 0.000000 0.000000 10.000000 
Rope3_Seg08 0.000000 0.000000 0.000000 0.000000 0.000000 0.000000 10.000000 
Rope3_Seg09 0.000000 0.000000 0.000000 0.000000 0.000000 0.000000 10.000000 
R_rear_hand01 0.000000 0.000000 0.000000 0.000000 0.000000 0.000000 10.000000 
R_rear_hand02 0.000000 0.000000 0.000000 0.000000 0.000000 0.000000 10.000000 
R_rear_hand03 0.000000 0.000000 0.000000 0.000000 0.000000 0.000000 10.000000 
Rope4_Seg01 0.000000 0.000000 0.000000 0.000000 0.000000 0.000000 10.000000 
Rope4_Seg02 0.000000 0.000000 0.000000 0.000000 0.000000 0.000000 10.000000 
Rope4_Seg03 0.000000 0.000000 0.000000 0.000000 0.000000 0.000000 10.000000 
Rope4_Seg04 0.000000 0.000000 0.000000 0.000000 0.000000 0.000000 10.000000 
Rope4_Seg05 0.000000 0.000000 0.000000 0.000000 0.000000 0.000000 10.000000 
Rope4_Seg06 0.000000 0.000000 0.000000 0.000000 0.000000 0.000000 10.000000 
Rope4_Seg07 0.000000 0.000000 0.000000 0.000000 0.000000 0.000000 10.000000 
Rope4_Seg08 0.000000 0.000000 0.000000 0.000000 0.000000 0.000000 10.000000 
Rope4_Seg09 0.000000 0.000000 0.000000 0.000000 0.000000 0.000000 10.000000 
L_rear_hand01 0.000000 0.000000 0.000000 0.000000 0.000000 0.000000 10.000000 
L_rear_hand02 0.000000 0.000000 0.000000 0.000000 0.000000 0.000000 10.000000 
L_rear_hand03 0.000000 0.000000 0.000000 0.000000 0.000000 0.000000 10.000000 
#Beginning of Data. Separated by tabs
#Fr	Tx	Ty	Tz	Rx	Ry	Rz	SF
[MASTER]
38 -115.823105 4090.429199 352.281738 0.001660 0.001660 0.001660 4107.204590
39 -115.823105 4089.919678 352.258301 0.001660 0.001660 0.001660 4106.694824
[root]
38 2.696667 444.668884 1104.892578 -96.235016 -37.029194 -86.953636 1191.018677
39 2.696667 444.668884 1104.892578 -96.235016 -37.029194 -86.953636 1191.018677
[chest]
38 -84.512650 -34.090519 0.000000 -12.780322 -26.732737 151.887054 91.129311
39 -84.512650 -34.090519 0.000000 -12.594369 -26.390512 151.718781 91.129311
[L_mid_tent01]
38 27.299166 22.179010 -249.918701 -9.466660 31.764297 50.115398 252.381683
39 27.299166 22.179008 -249.918701 -10.325351 31.045506 48.191635 252.381683
[R_mid_tent01]
38 23.228794 24.509907 226.238495 179.894913 -28.869867 49.311317 228.744751
39 23.228794 24.509907 226.238495 -179.288300 -28.514282 48.047737 228.744751
[spine01]
38 -0.361383 -0.195265 0.000000 -0.000001 -0.000007 22.052340 0.410763
39 -0.361383 -0.195265 0.000000 -0.000001 -0.000007 22.052340 0.410763
[Bip01_Neck]
38 165.484543 71.581718 0.000119 176.643677 -1.657967 43.431911 180.302734
39 165.484543 71.581718 0.000119 176.643677 -1.657967 43.431911 180.302734
[L_humerus]
38 -13.983130 -135.272980 -120.471481 84.679298 84.639839 175.335938 181.680161
39 -13.983130 -135.272980 -120.471481 68.198097 84.602280 158.784012 181.680161
[R_humerus]
38 -13.983309 -135.273102 125.287651 178.789886 -86.102974 -83.815834 184.909012
39 -13.983309 -135.273102 125.287651 168.095596 -87.613197 -73.102493 184.909012
[weapon_bone]
38 235.964890 -300.705902 0.000000 0.000000 -89.951546 -128.212341 382.234833
39 235.964890 -300.705902 0.000000 0.000000 -89.951546 -128.212341 382.234833
[Bip01_Head]
38 203.285858 162.408463 31.616480 23.806808 3.341907 -49.228710 262.109222
39 203.285873 162.408478 31.616480 23.806807 3.341907 -49.228695 262.109222
[eye_left_bone]
38 -24.626970 125.451866 -64.772606 0.000000 -90.000000 -99.840431 143.318359
39 -24.626970 125.451866 -64.772606 0.000000 -90.000000 -99.840431 143.318359
[eye_right_bone]
38 -24.626970 125.451866 64.327362 0.000000 -89.965736 80.156380 143.117676
39 -24.626970 125.451866 64.327362 0.000000 -89.965736 80.156380 143.117676
[L_forearm]
38 322.776093 0.000000 -0.000119 0.000265 -0.002332 -102.981033 322.776093
39 322.776093 0.000000 -0.000119 0.000248 -0.002334 -102.144302 322.776093
[L_front_hand]
38 241.149185 -0.042021 -3.300071 0.836591 -1.835726 -27.423458 241.171753
39 241.149185 -0.042021 -3.300071 0.836591 -1.835726 -27.423462 241.171753
[L_weapon_bone]
38 156.183838 0.000000 0.000000 0.000014 0.000007 0.000001 156.183838
39 156.183838 0.000000 0.000000 0.000014 0.000007 0.000001 156.183838
[L_front_hand01_01]
38 86.095154 20.947098 -0.655860 -0.366594 -0.477154 75.385574 88.609184
39 86.095154 20.947098 -0.655860 -0.366594 -0.477154 75.385574 88.609184
[L_front_hand02_01]
38 86.935165 -11.437475 24.513514 154.399796 -59.883835 -61.369587 91.046425
39 86.935165 -11.437475 24.513514 154.399796 -59.883835 -61.369587 91.046425
[L_front_hand03_01]
38 86.637497 -14.123976 -20.424902 -153.913849 58.118122 -62.702866 90.126129
39 86.637497 -14.123976 -20.424902 -153.913849 58.118122 -62.702866 90.126129
[L_front_hand01_02]
38 71.020905 -0.000179 0.000030 0.000334 -0.002323 -106.379700 71.020905
39 71.020905 -0.000179 0.000030 0.000334 -0.002323 -106.379684 71.020905
[L_front_hand02_02]
38 71.020927 -0.000119 0.000060 0.000334 -0.002323 -106.379700 71.020927
39 71.020927 -0.000119 0.000060 0.000334 -0.002323 -106.379684 71.020927
[L_front_hand03_02]
38 71.020905 -0.000060 0.000060 0.000334 -0.002323 -106.379700 71.020905
39 71.020905 -0.000060 0.000060 0.000334 -0.002323 -106.379684 71.020905
[R_forearm]
38 322.776428 -0.000060 0.000030 0.206769 0.040258 -101.883179 322.776428
39 322.776428 -0.000060 0.000030 0.210889 0.035539 -101.014297 322.776428
[R_front_hand]
38 238.847015 -0.006795 2.210259 42.936222 -10.646152 -26.312963 238.857239
39 238.847015 -0.006795 2.210259 42.936222 -10.646152 -26.312963 238.857239
[R_weapon_bone]
38 155.664093 0.002503 -0.000030 0.003487 0.001180 -90.988930 155.664078
39 155.664093 0.002503 -0.000030 0.003487 0.001180 -90.988930 155.664078
[R_front_hand01_01]
38 87.624611 14.231146 22.918642 -154.633484 -59.950607 61.746033 91.683487
39 87.624611 14.231146 22.918642 -154.633499 -59.950619 61.746044 91.683487
[R_front_hand02_01]
38 89.356956 14.367283 -19.491137 154.602661 58.302849 63.744389 92.579636
39 89.356956 14.367283 -19.491137 154.602661 58.302849 63.744389 92.579636
[R_front_hand03_01]
38 87.286232 -22.307278 -0.143439 0.162155 -0.423168 -75.767921 90.091743
39 87.286232 -22.307278 -0.143439 0.162155 -0.423168 -75.767921 90.091743
[R_front_hand01_02]
38 71.020905 0.000060 0.000119 0.002323 -0.000334 106.381714 71.020905
39 71.020905 0.000060 0.000119 0.002323 -0.000334 106.381714 71.020905
[R_front_hand02_02]
38 71.020844 -0.000030 -0.000119 0.002323 -0.000334 106.381714 71.020836
39 71.020844 -0.000030 -0.000119 0.002323 -0.000334 106.381714 71.020836
[R_front_hand03_02]
38 71.020905 0.000000 0.000030 0.002323 -0.000334 106.381714 71.020905
39 71.020905 0.000000 0.000030 0.002323 -0.000334 106.381714 71.020905
[null_rope01_connect]
38 328.732483 0.000000 -0.000238 -125.983795 -53.663864 -158.493958 328.732483
39 328.732483 0.000000 -0.000238 -126.033592 -54.112503 -156.712769 328.732483
[Rope1_Seg01]
38 0.000028 -0.000397 0.000000 -14.631553 28.803944 162.119080 0.000398
39 0.000027 -0.000407 0.000000 -15.229649 29.924938 160.941360 0.000408
[Rope1_Seg02]
38 139.999863 -0.000179 0.000000 1.495842 1.263332 19.677521 139.999863
39 139.999863 -0.000179 0.000000 0.963980 0.844455 18.838726 139.999863
[Rope1_Seg03]
38 139.999924 0.000060 -0.000060 0.165003 -5.094930 8.363305 139.999924
39 139.999924 0.000060 -0.000060 0.138180 -5.544735 9.368690 139.999924
[Rope1_Seg04]
38 139.999924 -0.000060 -0.000119 16.112614 10.513725 26.596998 139.999924
39 139.999924 -0.000060 -0.000119 13.480973 8.523121 24.148886 139.999924
[Rope1_Seg05]
38 139.999832 0.000119 -0.000060 39.310421 31.088497 41.109791 139.999832
39 139.999832 0.000119 -0.000060 41.134834 30.551521 43.458576 139.999832
[Rope1_Seg06]
38 139.999954 0.000119 -0.000060 5.258176 12.314735 5.002247 139.999954
39 139.999954 0.000119 -0.000060 5.985236 13.474643 5.637830 139.999954
[Rope1_Seg07]
38 139.999985 0.000060 0.000000 1.670845 5.395731 1.689756 139.999985
39 139.999985 0.000060 0.000000 1.768161 5.628272 1.782318 139.999985
[Rope1_Seg09]
38 121.602913 0.000119 -0.000089 -89.793175 -1.359789 0.847147 121.602913
39 121.602913 0.000119 -0.000089 -89.793175 -1.359789 0.847147 121.602913
[L_mid_hand01]
38 103.859421 1.038730 8.195221 130.544373 -67.584534 -38.866943 104.187431
39 103.859421 1.038730 8.195221 130.544373 -67.584534 -38.866943 104.187431
[L_mid_hand02]
38 105.572853 -4.139662 -10.864139 -168.923172 43.409309 -73.498894 106.211075
39 105.572853 -4.139662 -10.864139 -168.923172 43.409309 -73.498886 106.211075
[L_mid_hand03]
38 104.641464 17.579376 -3.913581 -6.012626 17.808172 74.893661 106.179977
39 104.641464 17.579376 -3.913581 -6.012627 17.808174 74.893669 106.179977
[null_rope02_connect]
38 328.732849 0.000179 -0.000119 -92.885262 62.488506 10.445156 328.732849
39 328.732849 0.000179 -0.000119 -93.207367 62.868450 9.049089 328.732849
[Rope2_Seg01]
38 0.000095 0.000425 0.000000 80.501617 28.439198 14.382372 0.000436
39 0.000095 0.000434 0.000000 80.539864 29.033213 14.687755 0.000444
[Rope2_Seg02]
38 139.999741 -0.000060 -0.000119 -1.737368 -4.417661 -4.134768 139.999756
39 139.999741 -0.000060 -0.000119 -1.633259 -4.322685 -4.006220 139.999756
[Rope2_Seg03]
38 140.000107 0.000030 0.000000 -3.051998 -6.585637 -6.608456 140.000107
39 140.000107 0.000030 0.000000 -2.859526 -6.443468 -6.371635 140.000107
[Rope2_Seg04]
38 139.999802 0.000000 -0.000060 -6.163063 -10.460240 -12.562519 139.999802
39 139.999802 0.000000 -0.000060 -5.793680 -10.283998 -12.000983 139.999802
[Rope2_Seg05]
38 139.999985 -0.000060 0.000119 -10.203763 -12.679352 -21.361547 139.999985
39 139.999985 -0.000060 0.000119 -10.068783 -13.105514 -21.233713 139.999985
[Rope2_Seg06]
38 139.999893 -0.000030 -0.000119 -7.217706 -8.326697 -13.258474 139.999893
39 139.999893 -0.000030 -0.000119 -7.400725 -8.499555 -13.677412 139.999893
[Rope2_Seg07]
38 139.999893 0.000060 -0.000060 -6.052621 -8.001639 -9.038102 139.999893
39 139.999893 0.000060 -0.000060 -5.925447 -7.905699 -8.806829 139.999893
[Rope2_Seg09]
38 121.338966 0.000089 -0.000060 33.793236 -1.359788 -0.847141 121.338966
39 121.338966 0.000089 -0.000060 33.793236 -1.359788 -0.847141 121.338966
[R_mid_hand01]
38 104.680779 11.144459 -10.335981 -16.212067 45.237247 70.462852 105.778534
39 104.680779 11.144459 -10.335981 -16.212059 45.237240 70.462852 105.778534
[R_mid_hand02]
38 104.070427 2.443552 8.231699 49.067368 -67.749771 39.286453 104.424065
39 104.070427 2.443552 8.231699 49.067387 -67.749794 39.286469 104.424065
[R_mid_hand03]
38 106.028137 -11.221827 -5.996406 -177.101105 15.551026 -76.585571 106.788818
39 106.028137 -11.221827 -5.996406 -177.101105 15.551026 -76.585571 106.788818
[spine02]
38 129.756927 0.001550 0.000119 0.468025 -4.032829 -14.490576 129.756927
39 129.756927 0.001550 0.000119 0.461347 -4.033628 -14.393878 129.756927
[spine03]
38 78.613960 0.081730 -4.898994 1.961658 3.798334 17.452124 78.766495
39 78.613953 0.081733 -4.898994 1.957785 3.800325 17.391293 78.766495
[pelvis]
38 169.435242 0.051022 0.000000 -0.067145 -0.178649 16.076027 169.435257
39 169.435242 0.051022 0.000000 -0.066504 -0.178785 15.950292 169.435257
[null_rope03_connect]
38 -1.257226 -2.466202 137.391083 -178.587875 -86.102180 -95.359283 137.418976
39 -1.257226 -2.466202 137.391083 -178.519470 -86.096603 -95.338814 137.418976
[null_rope04_connect]
38 -1.259640 -2.480268 -137.844437 -178.587875 -86.102180 -95.359283 137.872513
39 -1.259640 -2.480268 -137.844437 -178.519470 -86.096603 -95.338814 137.872513
[Rope3_Seg01]
38 0.000000 0.000000 0.000000 -92.042404 -73.522491 49.152256 0.000000
39 0.000000 0.000000 0.000000 -92.091957 -73.517807 49.204903 0.000000
[Rope3_Seg02]
38 139.999924 -0.000119 0.000060 0.393336 18.630995 -1.156706 139.999924
39 139.999924 -0.000119 0.000060 0.388960 18.593851 -1.154982 139.999924
[Rope3_Seg03]
38 139.999924 -0.000119 0.000119 5.747952 25.637428 1.764484 139.999924
39 139.999924 -0.000119 0.000119 5.736648 25.638920 1.753732 139.999924
[Rope3_Seg04]
38 139.999924 0.000119 0.000000 8.913812 21.433455 -3.388187 139.999924
39 139.999924 0.000119 0.000000 8.910884 21.444506 -3.355723 139.999924
[Rope3_Seg05]
38 139.999924 -0.000238 0.000060 7.942029 30.076601 -33.220139 139.999924
39 139.999924 -0.000238 0.000060 7.963305 30.078804 -33.175545 139.999924
[Rope3_Seg06]
38 139.999893 -0.000119 -0.000060 0.917093 12.557499 -23.250917 139.999893
39 139.999893 -0.000119 -0.000060 0.923016 12.584657 -23.298260 139.999893
[Rope3_Seg07]
38 139.999771 0.000060 -0.000119 0.027033 4.465304 -8.319661 139.999771
39 139.999771 0.000060 -0.000119 0.027136 4.470596 -8.329596 139.999771
[Rope3_Seg08]
38 139.999985 -0.000060 0.000000 0.168318 2.076896 -3.910477 139.999985
39 139.999985 -0.000060 0.000000 0.168195 2.078646 -3.913972 139.999985
[Rope3_Seg09]
38 90.185997 -0.000179 -0.000060 89.793228 -1.359877 -0.847183 90.185997
39 90.185997 -0.000179 -0.000060 89.793228 -1.359877 -0.847183 90.185997
[R_rear_hand01]
38 103.366196 -6.073594 -10.757982 -177.714203 24.565960 -73.910950 104.101845
39 103.366196 -6.073594 -10.757982 -177.714203 24.565960 -73.910950 104.101845
[R_rear_hand02]
38 100.509819 12.039542 -7.992327 -12.874829 36.868488 72.167213 101.543350
39 100.509819 12.039542 -7.992327 -12.874834 36.868492 72.167213 101.543350
[R_rear_hand03]
38 101.539970 5.215704 5.435467 71.484581 -71.816628 21.513813 101.819031
39 101.539970 5.215704 5.435467 71.484581 -71.816628 21.513813 101.819031
[Rope4_Seg01]
38 0.000010 0.000038 -0.000114 -18.818521 -37.050152 162.690247 0.000121
39 0.000010 0.000038 -0.000114 -18.594666 -37.129547 162.499817 0.000121
[Rope4_Seg02]
38 139.999985 0.000060 0.000119 -13.341390 10.006606 19.294661 139.999985
39 139.999985 0.000060 0.000119 -13.184236 9.954440 19.188734 139.999985
[Rope4_Seg03]
38 139.999924 0.000000 -0.000238 -6.906529 10.080481 9.017569 139.999924
39 139.999924 0.000000 -0.000238 -7.403987 10.043836 9.312793 139.999924
[Rope4_Seg04]
38 139.999985 0.000000 0.000119 -38.395298 -5.657597 18.322281 139.999985
39 139.999985 0.000000 0.000119 -37.148041 -5.044497 17.592121 139.999985
[Rope4_Seg05]
38 139.999802 -0.000060 -0.000119 -26.352579 -35.907509 14.894211 139.999802
39 139.999802 -0.000060 -0.000119 -27.241293 -35.370079 15.375374 139.999802
[Rope4_Seg06]
38 139.999924 0.000000 0.000060 -2.212361 -15.744505 -0.056928 139.999924
39 139.999924 0.000000 0.000060 -2.383703 -16.335264 -0.090929 139.999924
[Rope4_Seg07]
38 139.999802 0.000000 0.000000 -0.350583 -7.107764 -0.112833 139.999802
39 139.999802 0.000000 0.000000 -0.381734 -7.249074 -0.127782 139.999802
[Rope4_Seg08]
38 139.999924 0.000000 0.000119 -1.574167 -3.731204 -0.083979 139.999924
39 139.999924 0.000000 0.000119 -1.583704 -3.794044 -0.094349 139.999924
[Rope4_Seg09]
38 90.185791 0.000060 0.000060 -135.617828 2.228885 0.850567 90.185791
39 90.185791 0.000060 0.000060 -135.617828 2.228885 0.850567 90.185791
[L_rear_hand01]
38 101.696655 -8.392275 -7.654577 -12.874829 -36.868488 107.832764 102.329041
39 101.696655 -8.392275 -7.654577 -12.874829 -36.868488 107.832764 102.329041
[L_rear_hand02]
38 102.726799 -1.568258 5.773216 71.484581 71.816628 158.486160 102.900848
39 102.726799 -1.568258 5.773216 71.484581 71.816628 158.486160 102.900848
[L_rear_hand03]
38 104.552910 9.721220 -10.420293 -177.714203 -24.565960 -106.089035 105.519653
39 104.552910 9.721220 -10.420293 -177.714203 -24.565960 -106.089035 105.519653
